<svg width="11" height="10" viewBox="0 0 11 10" fill="none" xmlns="http://www.w3.org/2000/svg">
<path d="M10.2656 6.03906L6.51562 9.78906C6.375 9.92969 6.1875 10 6 10C5.78906 10 5.60156 9.92969 5.46094 9.78906C5.15625 9.50781 5.15625 9.01562 5.46094 8.73438L7.92188 6.25H0.75C0.328125 6.25 0 5.92188 0 5.5C0 5.10156 0.328125 4.75 0.75 4.75H7.92188L5.46094 2.28906C5.15625 2.00781 5.15625 1.51562 5.46094 1.23438C5.74219 0.929688 6.23438 0.929688 6.51562 1.23438L10.2656 4.98438C10.5703 5.26562 10.5703 5.75781 10.2656 6.03906Z" fill="#283373"/>
<path d="M10.2656 6.03906L6.51562 9.78906C6.375 9.92969 6.1875 10 6 10C5.78906 10 5.60156 9.92969 5.46094 9.78906C5.15625 9.50781 5.15625 9.01562 5.46094 8.73438L7.92188 6.25H0.75C0.328125 6.25 0 5.92188 0 5.5C0 5.10156 0.328125 4.75 0.75 4.75H7.92188L5.46094 2.28906C5.15625 2.00781 5.15625 1.51562 5.46094 1.23438C5.74219 0.929688 6.23438 0.929688 6.51562 1.23438L10.2656 4.98438C10.5703 5.26562 10.5703 5.75781 10.2656 6.03906Z" fill="black" fill-opacity="0.2"/>
</svg>
