<svg width="14" height="13" viewBox="0 0 14 13" fill="none" xmlns="http://www.w3.org/2000/svg">
<path d="M0 1.5C0 0.96875 0.4375 0.5 1 0.5H13C13.5312 0.5 14 0.96875 14 1.5C14 2.0625 13.5312 2.5 13 2.5H1C0.4375 2.5 0 2.0625 0 1.5ZM0 6.5C0 5.96875 0.4375 5.5 1 5.5H13C13.5312 5.5 14 5.96875 14 6.5C14 7.0625 13.5312 7.5 13 7.5H1C0.4375 7.5 0 7.0625 0 6.5ZM13 12.5H1C0.4375 12.5 0 12.0625 0 11.5C0 10.9688 0.4375 10.5 1 10.5H13C13.5312 10.5 14 10.9688 14 11.5C14 12.0625 13.5312 12.5 13 12.5Z" fill="white"/>
</svg>
