<svg width="24" height="25" viewBox="0 0 24 25" fill="none" xmlns="http://www.w3.org/2000/svg">
<path fill-rule="evenodd" clip-rule="evenodd" d="M1 1.5H5.82993L6.57993 5.5H23.443L19.693 15.5H8.45493L8.82993 17.5H19V19.5H7.17007L4.17007 3.5H1V1.5ZM8.07993 13.5H18.307L20.557 7.5H6.95493L8.07993 13.5Z" fill="white"/>
<path d="M8 22C8 21.1716 8.67157 20.5 9.5 20.5C10.3284 20.5 11 21.1716 11 22C11 22.8284 10.3284 23.5 9.5 23.5C8.67157 23.5 8 22.8284 8 22Z" fill="white"/>
<path d="M15 22C15 21.1716 15.6716 20.5 16.5 20.5C17.3284 20.5 18 21.1716 18 22C18 22.8284 17.3284 23.5 16.5 23.5C15.6716 23.5 15 22.8284 15 22Z" fill="white"/>
</svg>
