<svg width="14" height="13" viewBox="0 0 14 13" fill="none" xmlns="http://www.w3.org/2000/svg">
<path d="M7 12.2856C4.84375 12.2856 2.875 11.1606 1.79688 9.28564C0.71875 7.43408 0.71875 5.16064 1.79688 3.28564C2.875 1.43408 4.84375 0.285645 7 0.285645C9.13281 0.285645 11.1016 1.43408 12.1797 3.28564C13.2578 5.16064 13.2578 7.43408 12.1797 9.28564C11.1016 11.1606 9.13281 12.2856 7 12.2856ZM9.64844 5.18408H9.625C9.85938 4.97314 9.85938 4.62158 9.625 4.38721C9.41406 4.17627 9.0625 4.17627 8.85156 4.38721L6.25 7.01221L5.14844 5.91064C4.91406 5.67627 4.5625 5.67627 4.35156 5.91064C4.11719 6.12158 4.11719 6.47314 4.35156 6.68408L5.85156 8.18408C6.0625 8.41846 6.41406 8.41846 6.64844 8.18408L9.64844 5.18408Z" fill="#F17C2C"/>
</svg>
