<svg width="32" height="32" viewBox="0 0 32 32" fill="none" xmlns="http://www.w3.org/2000/svg">
<rect x="0.5" y="0.5" width="31" height="31" rx="15.5" stroke="#252525"/>
<path d="M9.41436 6.00015L6.00015 9.41436L4.58594 8.00015L8.00015 4.58594L9.41436 6.00015Z" fill="#252525"/>
<path d="M24.0002 4.58594L27.4144 8.00015L26.0002 9.41436L22.5859 6.00015L24.0002 4.58594Z" fill="#252525"/>
<path d="M17.0002 11.0002V15.5859L20.4144 19.0002L19.0002 20.4144L15.0002 16.4144V11.0002H17.0002Z" fill="#252525"/>
<path fill-rule="evenodd" clip-rule="evenodd" d="M6.00015 16.0002C6.00015 10.4773 10.4773 6.00015 16.0002 6.00015C21.523 6.00015 26.0002 10.4773 26.0002 16.0002C26.0002 21.523 21.523 26.0002 16.0002 26.0002C10.4773 26.0002 6.00015 21.523 6.00015 16.0002ZM16.0002 8.00015C11.5819 8.00015 8.00015 11.5819 8.00015 16.0002C8.00015 20.4184 11.5819 24.0002 16.0002 24.0002C20.4184 24.0002 24.0002 20.4184 24.0002 16.0002C24.0002 11.5819 20.4184 8.00015 16.0002 8.00015Z" fill="#252525"/>
</svg>
