<svg width="16" height="13" viewBox="0 0 16 13" fill="none" xmlns="http://www.w3.org/2000/svg">
<path d="M2.75 0C3.15625 0 3.5 0.34375 3.5 0.75V2.25C3.5 2.6875 3.15625 3 2.75 3H1.25C0.8125 3 0.5 2.6875 0.5 2.25V0.75C0.5 0.34375 0.8125 0 1.25 0H2.75ZM15 0.5C15.5312 0.5 16 0.96875 16 1.5C16 2.0625 15.5312 2.5 15 2.5H6C5.4375 2.5 5 2.0625 5 1.5C5 0.96875 5.4375 0.5 6 0.5H15ZM15 5.5C15.5312 5.5 16 5.96875 16 6.5C16 7.0625 15.5312 7.5 15 7.5H6C5.4375 7.5 5 7.0625 5 6.5C5 5.96875 5.4375 5.5 6 5.5H15ZM15 10.5C15.5312 10.5 16 10.9688 16 11.5C16 12.0625 15.5312 12.5 15 12.5H6C5.4375 12.5 5 12.0625 5 11.5C5 10.9688 5.4375 10.5 6 10.5H15ZM0.5 5.75C0.5 5.34375 0.8125 5 1.25 5H2.75C3.15625 5 3.5 5.34375 3.5 5.75V7.25C3.5 7.6875 3.15625 8 2.75 8H1.25C0.8125 8 0.5 7.6875 0.5 7.25V5.75ZM2.75 10C3.15625 10 3.5 10.3438 3.5 10.75V12.25C3.5 12.6875 3.15625 13 2.75 13H1.25C0.8125 13 0.5 12.6875 0.5 12.25V10.75C0.5 10.3438 0.8125 10 1.25 10H2.75Z" fill="#283373"/>
</svg>
