<svg width="16" height="15" viewBox="0 0 16 15" fill="none" xmlns="http://www.w3.org/2000/svg">
<path d="M15 0.5C15.5312 0.5 16 0.96875 16 1.5V12.5C16 13.625 15.0938 14.5 14 14.5H2C0.875 14.5 0 13.625 0 12.5V3.5C0 2.96875 0.4375 2.5 1 2.5H2V12C2 12.2812 2.21875 12.5 2.5 12.5C2.75 12.5 3 12.2812 3 12V1.5C3 0.96875 3.4375 0.5 4 0.5H15ZM8.5 12.5C8.75 12.5 9 12.2812 9 12C9 11.75 8.75 11.5 8.5 11.5H5.5C5.21875 11.5 5 11.75 5 12C5 12.2812 5.21875 12.5 5.5 12.5H8.5ZM8.5 9.5C8.75 9.5 9 9.28125 9 9C9 8.75 8.75 8.5 8.5 8.5H5.5C5.21875 8.5 5 8.75 5 9C5 9.28125 5.21875 9.5 5.5 9.5H8.5ZM13.5 12.5C13.75 12.5 14 12.2812 14 12C14 11.75 13.75 11.5 13.5 11.5H10.5C10.2188 11.5 10 11.75 10 12C10 12.2812 10.2188 12.5 10.5 12.5H13.5ZM13.5 9.5C13.75 9.5 14 9.28125 14 9C14 8.75 13.75 8.5 13.5 8.5H10.5C10.2188 8.5 10 8.75 10 9C10 9.28125 10.2188 9.5 10.5 9.5H13.5ZM14 6V3C14 2.75 13.75 2.5 13.5 2.5H5.5C5.21875 2.5 5 2.75 5 3V6C5 6.28125 5.21875 6.5 5.5 6.5H13.5C13.75 6.5 14 6.28125 14 6Z" fill="#283373"/>
</svg>
