<svg width="32" height="32" viewBox="0 0 32 32" fill="none" xmlns="http://www.w3.org/2000/svg">
<rect x="0.5" y="0.5" width="31" height="31" rx="15.5" stroke="#252525"/>
<g clip-path="url(#clip0_3039_2914)">
<path fill-rule="evenodd" clip-rule="evenodd" d="M8.6665 8.6665H13.213L14.0569 12.8856L12.2758 14.6667C12.9663 17.1083 14.8914 19.0333 17.333 19.7239L19.1141 17.9428L23.3332 18.7866V23.3332H19.3332C13.4421 23.3332 8.6665 18.5575 8.6665 12.6665V8.6665ZM9.99984 9.99984V12.6665C9.99984 17.8212 14.1785 21.9998 19.3332 21.9998H21.9998V19.8797L19.5523 19.3902L17.7463 21.1961L17.3867 21.1136C14.1626 20.3734 11.6262 17.8371 10.8861 14.613L10.8035 14.2533L12.6095 12.4474L12.12 9.99984H9.99984Z" fill="#252525"/>
</g>
<defs>
<clipPath id="clip0_3039_2914">
<rect width="16" height="16" fill="white" transform="translate(8 8)"/>
</clipPath>
</defs>
</svg>
