<svg width="24" height="25" viewBox="0 0 24 25" fill="none" xmlns="http://www.w3.org/2000/svg">
<path fill-rule="evenodd" clip-rule="evenodd" d="M7 6.5C7 3.73858 9.23858 1.5 12 1.5C14.7614 1.5 17 3.73858 17 6.5C17 9.26142 14.7614 11.5 12 11.5C9.23858 11.5 7 9.26142 7 6.5ZM12 3.5C10.3431 3.5 9 4.84315 9 6.5C9 8.15685 10.3431 9.5 12 9.5C13.6569 9.5 15 8.15685 15 6.5C15 4.84315 13.6569 3.5 12 3.5Z" fill="white"/>
<path fill-rule="evenodd" clip-rule="evenodd" d="M2 22.5C2 16.9772 6.47715 12.5 12 12.5C17.5228 12.5 22 16.9772 22 22.5V23.5H2V22.5ZM4.06189 21.5H19.9381C19.446 17.5537 16.0796 14.5 12 14.5C7.92038 14.5 4.55399 17.5537 4.06189 21.5Z" fill="white"/>
</svg>
